<svg width="371" height="200" viewBox="0 0 371 200" fill="none" xmlns="http://www.w3.org/2000/svg">
<g filter="url(#filter0_dd_1527_525)">
<g clip-path="url(#clip0_1527_525)">
<path d="M20 32C20 14.3269 34.3269 0 52 0H321.667C339.34 0 353.667 14.3269 353.667 32V128C353.667 145.673 339.34 160 321.667 160H52C34.3269 160 20 145.673 20 128V32Z" fill="white" fill-opacity="0.01" shape-rendering="crispEdges"/>
<rect width="333.667" height="160" transform="translate(20)" fill="url(#paint0_linear_1527_525)"/>
<g filter="url(#filter1_f_1527_525)">
<path d="M233.667 40C233.667 -4.18278 269.484 -40 313.667 -40C357.849 -40 393.667 -4.18278 393.667 40C393.667 84.1828 357.849 120 313.667 120C269.484 120 233.667 84.1828 233.667 40Z" fill="white" fill-opacity="0.2"/>
</g>
<g filter="url(#filter2_f_1527_525)">
<path d="M60 96.0001C60 60.6539 88.6538 32.0001 124 32.0001C159.346 32.0001 188 60.6539 188 96.0001C188 131.346 159.346 160 124 160C88.6538 160 60 131.346 60 96.0001Z" fill="#FFF085" fill-opacity="0.2"/>
</g>
<mask id="path-4-inside-1_1527_525" fill="white">
<path d="M44 39.75C44 33.0306 49.4472 27.5834 56.1667 27.5834H129C135.719 27.5834 141.167 33.0306 141.167 39.75C141.167 46.4695 135.719 51.9167 129 51.9167H56.1667C49.4472 51.9167 44 46.4695 44 39.75Z"/>
</mask>
<path d="M44 39.75C44 33.0306 49.4472 27.5834 56.1667 27.5834H129C135.719 27.5834 141.167 33.0306 141.167 39.75C141.167 46.4695 135.719 51.9167 129 51.9167H56.1667C49.4472 51.9167 44 46.4695 44 39.75Z" fill="white" fill-opacity="0.2"/>
<path d="M56.1667 27.5834V28.25H129V27.5834V26.9167H56.1667V27.5834ZM129 51.9167V51.25H56.1667V51.9167V52.5834H129V51.9167ZM56.1667 51.9167V51.25C49.8154 51.25 44.6667 46.1013 44.6667 39.75H44H43.3333C43.3333 46.8377 49.079 52.5834 56.1667 52.5834V51.9167ZM141.167 39.75H140.5C140.5 46.1013 135.351 51.25 129 51.25V51.9167V52.5834C136.088 52.5834 141.833 46.8377 141.833 39.75H141.167ZM129 27.5834V28.25C135.351 28.25 140.5 33.3988 140.5 39.75H141.167H141.833C141.833 32.6624 136.088 26.9167 129 26.9167V27.5834ZM56.1667 27.5834V26.9167C49.079 26.9167 43.3333 32.6624 43.3333 39.75H44H44.6667C44.6667 33.3988 49.8154 28.25 56.1667 28.25V27.5834Z" fill="white" fill-opacity="0.1" mask="url(#path-4-inside-1_1527_525)"/>
<g clip-path="url(#clip1_1527_525)">
<path d="M60.6665 37.4044H63.6665V40.4044" stroke="white" stroke-linecap="round" stroke-linejoin="round"/>
<path d="M63.6665 37.4044L59.4165 41.6544L56.9165 39.1544L53.6665 42.4044" stroke="white" stroke-linecap="round" stroke-linejoin="round"/>
</g>
<path d="M73.0054 42.9044V36.9572H70.8813V35.7462H76.5698V36.9572H74.4507V42.9044H73.0054ZM77.5288 39.3693C77.5288 38.6401 77.6379 38.0281 77.856 37.5333C78.0187 37.1687 78.2401 36.8416 78.52 36.5519C78.8032 36.2622 79.1125 36.0473 79.4478 35.9073C79.8937 35.7185 80.408 35.6241 80.9907 35.6241C82.0454 35.6241 82.8885 35.9513 83.52 36.6056C84.1548 37.2599 84.4722 38.1697 84.4722 39.3351C84.4722 40.4907 84.158 41.3956 83.5298 42.0499C82.9015 42.701 82.0617 43.0265 81.0103 43.0265C79.9458 43.0265 79.0994 42.7026 78.4712 42.0548C77.8429 41.4038 77.5288 40.5086 77.5288 39.3693ZM79.0181 39.3204C79.0181 40.131 79.2052 40.7462 79.5796 41.1661C79.9539 41.5828 80.4292 41.7911 81.0054 41.7911C81.5815 41.7911 82.0535 41.5844 82.4214 41.171C82.7925 40.7544 82.978 40.131 82.978 39.3009C82.978 38.4806 82.7974 37.8686 82.436 37.465C82.078 37.0613 81.6011 36.8595 81.0054 36.8595C80.4097 36.8595 79.9295 37.0646 79.5649 37.4747C79.2004 37.8816 79.0181 38.4969 79.0181 39.3204ZM86.105 42.9044V35.7462H88.4243C89.3032 35.7462 89.8761 35.782 90.1431 35.8536C90.5532 35.9611 90.8966 36.1954 91.1733 36.5568C91.45 36.9148 91.5884 37.3787 91.5884 37.9484C91.5884 38.3878 91.5086 38.7573 91.3491 39.0568C91.1896 39.3562 90.9862 39.5922 90.7388 39.7648C90.4946 39.934 90.2456 40.0463 89.9917 40.1017C89.6466 40.17 89.147 40.2042 88.4927 40.2042H87.5503V42.9044H86.105ZM87.5503 36.9572V38.9884H88.3413C88.911 38.9884 89.2918 38.951 89.4839 38.8761C89.6759 38.8012 89.8257 38.684 89.9331 38.5245C90.0438 38.365 90.0991 38.1795 90.0991 37.9679C90.0991 37.7075 90.0226 37.4926 89.8696 37.3234C89.7166 37.1541 89.5229 37.0483 89.2886 37.006C89.116 36.9734 88.7694 36.9572 88.2485 36.9572H87.5503ZM96.3774 42.9044V35.7462H99.4194C100.184 35.7462 100.739 35.8113 101.084 35.9415C101.433 36.0685 101.711 36.2963 101.919 36.6251C102.128 36.9539 102.232 37.3299 102.232 37.7531C102.232 38.2902 102.074 38.7345 101.758 39.0861C101.443 39.4344 100.971 39.6541 100.342 39.7452C100.655 39.9275 100.912 40.1277 101.114 40.3458C101.319 40.5639 101.594 40.9513 101.939 41.5079L102.813 42.9044H101.084L100.04 41.3468C99.6685 40.7902 99.4146 40.4402 99.2778 40.297C99.1411 40.1505 98.9963 40.0512 98.8433 39.9991C98.6903 39.9438 98.4478 39.9161 98.1157 39.9161H97.8228V42.9044H96.3774ZM97.8228 38.7736H98.8921C99.5854 38.7736 100.018 38.7443 100.191 38.6857C100.363 38.6271 100.499 38.5262 100.596 38.3829C100.694 38.2397 100.743 38.0607 100.743 37.8458C100.743 37.6049 100.678 37.4113 100.547 37.2648C100.42 37.115 100.24 37.0206 100.005 36.9816C99.8882 36.9653 99.5366 36.9572 98.9507 36.9572H97.8228V38.7736ZM110.554 42.9044H108.982L108.357 41.2784H105.496L104.905 42.9044H103.372L106.16 35.7462H107.688L110.554 42.9044ZM107.893 40.0724L106.907 37.4161L105.94 40.0724H107.893ZM112.695 42.9044V36.9572H110.571V35.7462H116.259V36.9572H114.14V42.9044H112.695ZM117.697 42.9044V35.7462H123.004V36.9572H119.142V38.5441H122.736V39.7501H119.142V41.6984H123.141V42.9044H117.697ZM124.862 35.7462H127.503C128.099 35.7462 128.553 35.7918 128.866 35.8829C129.286 36.0066 129.645 36.2264 129.945 36.5421C130.244 36.8579 130.472 37.2452 130.628 37.7042C130.785 38.16 130.863 38.7231 130.863 39.3937C130.863 39.9829 130.79 40.4907 130.643 40.9171C130.464 41.4379 130.208 41.8595 129.876 42.1818C129.626 42.4259 129.287 42.6163 128.861 42.7531C128.542 42.854 128.115 42.9044 127.582 42.9044H124.862V35.7462ZM126.307 36.9572V41.6984H127.386C127.79 41.6984 128.081 41.6756 128.26 41.63C128.495 41.5714 128.688 41.4721 128.841 41.3322C128.998 41.1922 129.125 40.9627 129.222 40.6437C129.32 40.3214 129.369 39.8836 129.369 39.3302C129.369 38.7768 129.32 38.352 129.222 38.0558C129.125 37.7596 128.988 37.5284 128.812 37.3624C128.636 37.1964 128.413 37.0841 128.143 37.0255C127.941 36.9799 127.546 36.9572 126.957 36.9572H126.307Z" fill="white"/>
<path d="M51.512 63.8314C53.272 63.8314 54.816 64.1754 56.144 64.8634C57.488 65.5514 58.52 66.5354 59.24 67.8154C59.976 69.0794 60.344 70.5514 60.344 72.2314C60.344 73.9114 59.976 75.3834 59.24 76.6474C58.52 77.8954 57.488 78.8634 56.144 79.5514C54.816 80.2394 53.272 80.5834 51.512 80.5834H45.656V63.8314H51.512ZM51.392 77.7274C53.152 77.7274 54.512 77.2474 55.472 76.2874C56.432 75.3274 56.912 73.9754 56.912 72.2314C56.912 70.4874 56.432 69.1274 55.472 68.1514C54.512 67.1594 53.152 66.6634 51.392 66.6634H49.016V77.7274H51.392ZM64.5631 65.7034C63.9711 65.7034 63.4751 65.5194 63.0751 65.1514C62.6911 64.7674 62.4991 64.2954 62.4991 63.7354C62.4991 63.1754 62.6911 62.7114 63.0751 62.3434C63.4751 61.9594 63.9711 61.7674 64.5631 61.7674C65.1551 61.7674 65.6431 61.9594 66.0271 62.3434C66.4271 62.7114 66.6271 63.1754 66.6271 63.7354C66.6271 64.2954 66.4271 64.7674 66.0271 65.1514C65.6431 65.5194 65.1551 65.7034 64.5631 65.7034ZM66.2191 67.2874V80.5834H62.8591V67.2874H66.2191ZM74.7468 67.0714C75.7388 67.0714 76.6108 67.2714 77.3628 67.6714C78.1148 68.0554 78.7068 68.5594 79.1388 69.1834V67.2874H82.5228V80.6794C82.5228 81.9114 82.2748 83.0074 81.7788 83.9674C81.2828 84.9434 80.5388 85.7114 79.5468 86.2714C78.5548 86.8474 77.3548 87.1354 75.9468 87.1354C74.0588 87.1354 72.5068 86.6954 71.2908 85.8154C70.0908 84.9354 69.4108 83.7354 69.2508 82.2154H72.5868C72.7628 82.8234 73.1388 83.3034 73.7148 83.6554C74.3068 84.0234 75.0188 84.2074 75.8508 84.2074C76.8268 84.2074 77.6188 83.9114 78.2268 83.3194C78.8348 82.7434 79.1388 81.8634 79.1388 80.6794V78.6154C78.7068 79.2394 78.1068 79.7594 77.3388 80.1754C76.5868 80.5914 75.7228 80.7994 74.7468 80.7994C73.6268 80.7994 72.6028 80.5114 71.6748 79.9354C70.7468 79.3594 70.0108 78.5514 69.4668 77.5114C68.9388 76.4554 68.6748 75.2474 68.6748 73.8874C68.6748 72.5434 68.9388 71.3514 69.4668 70.3114C70.0108 69.2714 70.7388 68.4714 71.6508 67.9114C72.5788 67.3514 73.6108 67.0714 74.7468 67.0714ZM79.1388 73.9354C79.1388 73.1194 78.9788 72.4234 78.6588 71.8474C78.3388 71.2554 77.9068 70.8074 77.3628 70.5034C76.8188 70.1834 76.2348 70.0234 75.6108 70.0234C74.9868 70.0234 74.4108 70.1754 73.8828 70.4794C73.3548 70.7834 72.9228 71.2314 72.5868 71.8234C72.2668 72.3994 72.1068 73.0874 72.1068 73.8874C72.1068 74.6874 72.2668 75.3914 72.5868 75.9994C72.9228 76.5914 73.3548 77.0474 73.8828 77.3674C74.4268 77.6874 75.0028 77.8474 75.6108 77.8474C76.2348 77.8474 76.8188 77.6954 77.3628 77.3914C77.9068 77.0714 78.3388 76.6234 78.6588 76.0474C78.9788 75.4554 79.1388 74.7514 79.1388 73.9354ZM87.5084 65.7034C86.9164 65.7034 86.4204 65.5194 86.0204 65.1514C85.6364 64.7674 85.4444 64.2954 85.4444 63.7354C85.4444 63.1754 85.6364 62.7114 86.0204 62.3434C86.4204 61.9594 86.9164 61.7674 87.5084 61.7674C88.1004 61.7674 88.5884 61.9594 88.9724 62.3434C89.3724 62.7114 89.5724 63.1754 89.5724 63.7354C89.5724 64.2954 89.3724 64.7674 88.9724 65.1514C88.5884 65.5194 88.1004 65.7034 87.5084 65.7034ZM89.1644 67.2874V80.5834H85.8044V67.2874H89.1644ZM96.3961 70.0474V76.4794C96.3961 76.9274 96.5001 77.2554 96.7081 77.4634C96.9321 77.6554 97.3001 77.7514 97.8121 77.7514H99.3721V80.5834H97.2601C94.4281 80.5834 93.0121 79.2074 93.0121 76.4554V70.0474H91.4281V67.2874H93.0121V63.9994H96.3961V67.2874H99.3721V70.0474H96.3961ZM100.925 73.8874C100.925 72.5434 101.189 71.3514 101.717 70.3114C102.261 69.2714 102.989 68.4714 103.901 67.9114C104.829 67.3514 105.861 67.0714 106.997 67.0714C107.989 67.0714 108.853 67.2714 109.589 67.6714C110.341 68.0714 110.941 68.5754 111.389 69.1834V67.2874H114.773V80.5834H111.389V78.6394C110.957 79.2634 110.357 79.7834 109.589 80.1994C108.837 80.5994 107.965 80.7994 106.973 80.7994C105.853 80.7994 104.829 80.5114 103.901 79.9354C102.989 79.3594 102.261 78.5514 101.717 77.5114C101.189 76.4554 100.925 75.2474 100.925 73.8874ZM111.389 73.9354C111.389 73.1194 111.229 72.4234 110.909 71.8474C110.589 71.2554 110.157 70.8074 109.613 70.5034C109.069 70.1834 108.485 70.0234 107.861 70.0234C107.237 70.0234 106.661 70.1754 106.133 70.4794C105.605 70.7834 105.173 71.2314 104.837 71.8234C104.517 72.3994 104.357 73.0874 104.357 73.8874C104.357 74.6874 104.517 75.3914 104.837 75.9994C105.173 76.5914 105.605 77.0474 106.133 77.3674C106.677 77.6874 107.253 77.8474 107.861 77.8474C108.485 77.8474 109.069 77.6954 109.613 77.3914C110.157 77.0714 110.589 76.6234 110.909 76.0474C111.229 75.4554 111.389 74.7514 111.389 73.9354ZM121.414 62.8234V80.5834H118.054V62.8234H121.414ZM142.117 68.8714C141.733 68.1674 141.205 67.6314 140.533 67.2634C139.861 66.8954 139.077 66.7114 138.181 66.7114C137.189 66.7114 136.309 66.9354 135.541 67.3834C134.773 67.8314 134.173 68.4714 133.741 69.3034C133.309 70.1354 133.093 71.0954 133.093 72.1834C133.093 73.3034 133.309 74.2794 133.741 75.1114C134.189 75.9434 134.805 76.5834 135.589 77.0314C136.373 77.4794 137.285 77.7034 138.325 77.7034C139.605 77.7034 140.653 77.3674 141.469 76.6954C142.285 76.0074 142.821 75.0554 143.077 73.8394H137.317V71.2714H146.389V74.1994C146.165 75.3674 145.685 76.4474 144.949 77.4394C144.213 78.4314 143.261 79.2314 142.093 79.8394C140.941 80.4314 139.645 80.7274 138.205 80.7274C136.589 80.7274 135.125 80.3674 133.813 79.6474C132.517 78.9114 131.493 77.8954 130.741 76.5994C130.005 75.3034 129.637 73.8314 129.637 72.1834C129.637 70.5354 130.005 69.0634 130.741 67.7674C131.493 66.4554 132.517 65.4394 133.813 64.7194C135.125 63.9834 136.581 63.6154 138.181 63.6154C140.069 63.6154 141.709 64.0794 143.101 65.0074C144.493 65.9194 145.453 67.2074 145.981 68.8714H142.117ZM154.779 80.7994C153.499 80.7994 152.347 80.5194 151.323 79.9594C150.299 79.3834 149.491 78.5754 148.899 77.5354C148.323 76.4954 148.035 75.2954 148.035 73.9354C148.035 72.5754 148.331 71.3754 148.923 70.3354C149.531 69.2954 150.355 68.4954 151.395 67.9354C152.435 67.3594 153.595 67.0714 154.875 67.0714C156.155 67.0714 157.315 67.3594 158.355 67.9354C159.395 68.4954 160.211 69.2954 160.803 70.3354C161.411 71.3754 161.715 72.5754 161.715 73.9354C161.715 75.2954 161.403 76.4954 160.779 77.5354C160.171 78.5754 159.339 79.3834 158.283 79.9594C157.243 80.5194 156.075 80.7994 154.779 80.7994ZM154.779 77.8714C155.387 77.8714 155.955 77.7274 156.483 77.4394C157.027 77.1354 157.459 76.6874 157.779 76.0954C158.099 75.5034 158.259 74.7834 158.259 73.9354C158.259 72.6714 157.923 71.7034 157.251 71.0314C156.595 70.3434 155.787 69.9994 154.827 69.9994C153.867 69.9994 153.059 70.3434 152.403 71.0314C151.763 71.7034 151.443 72.6714 151.443 73.9354C151.443 75.1994 151.755 76.1754 152.379 76.8634C153.019 77.5354 153.819 77.8714 154.779 77.8714ZM167.539 62.8234V80.5834H164.179V62.8234H167.539ZM169.995 73.8874C169.995 72.5434 170.259 71.3514 170.787 70.3114C171.331 69.2714 172.067 68.4714 172.995 67.9114C173.923 67.3514 174.955 67.0714 176.091 67.0714C176.955 67.0714 177.779 67.2634 178.563 67.6474C179.347 68.0154 179.971 68.5114 180.435 69.1354V62.8234H183.843V80.5834H180.435V78.6154C180.019 79.2714 179.435 79.7994 178.683 80.1994C177.931 80.5994 177.059 80.7994 176.067 80.7994C174.947 80.7994 173.923 80.5114 172.995 79.9354C172.067 79.3594 171.331 78.5514 170.787 77.5114C170.259 76.4554 169.995 75.2474 169.995 73.8874ZM180.459 73.9354C180.459 73.1194 180.299 72.4234 179.979 71.8474C179.659 71.2554 179.227 70.8074 178.683 70.5034C178.139 70.1834 177.555 70.0234 176.931 70.0234C176.307 70.0234 175.731 70.1754 175.203 70.4794C174.675 70.7834 174.243 71.2314 173.907 71.8234C173.587 72.3994 173.427 73.0874 173.427 73.8874C173.427 74.6874 173.587 75.3914 173.907 75.9994C174.243 76.5914 174.675 77.0474 175.203 77.3674C175.747 77.6874 176.323 77.8474 176.931 77.8474C177.555 77.8474 178.139 77.6954 178.683 77.3914C179.227 77.0714 179.659 76.6234 179.979 76.0474C180.299 75.4554 180.459 74.7514 180.459 73.9354Z" fill="white"/>
<g opacity="0.9">
<path d="M44.5391 103.49L45.6113 103.397C45.6621 103.826 45.7793 104.18 45.9629 104.457C46.1504 104.731 46.4395 104.953 46.8301 105.125C47.2207 105.293 47.6602 105.377 48.1484 105.377C48.582 105.377 48.9648 105.313 49.2969 105.184C49.6289 105.055 49.875 104.879 50.0352 104.656C50.1992 104.43 50.2812 104.184 50.2812 103.918C50.2812 103.649 50.2031 103.414 50.0469 103.215C49.8906 103.012 49.6328 102.842 49.2734 102.705C49.043 102.615 48.5332 102.477 47.7441 102.289C46.9551 102.098 46.4023 101.918 46.0859 101.75C45.6758 101.535 45.3691 101.27 45.166 100.953C44.9668 100.633 44.8672 100.276 44.8672 99.881C44.8672 99.4474 44.9902 99.0431 45.2363 98.6681C45.4824 98.2892 45.8418 98.0021 46.3145 97.8068C46.7871 97.6115 47.3125 97.5138 47.8906 97.5138C48.5273 97.5138 49.0879 97.6173 49.5723 97.8243C50.0605 98.0275 50.4355 98.3282 50.6973 98.7267C50.959 99.1251 51.0996 99.5763 51.1191 100.08L50.0293 100.162C49.9707 99.6193 49.7715 99.2091 49.4316 98.9318C49.0957 98.6544 48.5977 98.5157 47.9375 98.5157C47.25 98.5157 46.748 98.6427 46.4316 98.8966C46.1191 99.1466 45.9629 99.4493 45.9629 99.8048C45.9629 100.113 46.0742 100.367 46.2969 100.567C46.5156 100.766 47.0859 100.971 48.0078 101.182C48.9336 101.389 49.5684 101.57 49.9121 101.727C50.4121 101.957 50.7812 102.25 51.0195 102.606C51.2578 102.957 51.377 103.363 51.377 103.824C51.377 104.281 51.2461 104.713 50.9844 105.119C50.7227 105.522 50.3457 105.836 49.8535 106.063C49.3652 106.285 48.8145 106.397 48.2012 106.397C47.4238 106.397 46.7715 106.283 46.2441 106.057C45.7207 105.83 45.3086 105.49 45.0078 105.037C44.7109 104.58 44.5547 104.065 44.5391 103.49ZM55.0977 105.307L55.25 106.238C54.9531 106.301 54.6875 106.332 54.4531 106.332C54.0703 106.332 53.7734 106.272 53.5625 106.151C53.3516 106.029 53.2031 105.871 53.1172 105.676C53.0312 105.477 52.9883 105.061 52.9883 104.428V100.848H52.2148V100.027H52.9883V98.4865L54.0371 97.8536V100.027H55.0977V100.848H54.0371V104.486C54.0371 104.787 54.0547 104.981 54.0898 105.067C54.1289 105.152 54.1895 105.221 54.2715 105.272C54.3574 105.322 54.4785 105.348 54.6348 105.348C54.752 105.348 54.9062 105.334 55.0977 105.307ZM60.1953 105.483C59.8047 105.815 59.4277 106.049 59.0645 106.186C58.7051 106.322 58.3184 106.391 57.9043 106.391C57.2207 106.391 56.6953 106.225 56.3281 105.893C55.9609 105.557 55.7773 105.129 55.7773 104.609C55.7773 104.305 55.8457 104.027 55.9824 103.777C56.123 103.524 56.3047 103.32 56.5273 103.168C56.7539 103.016 57.0078 102.901 57.2891 102.822C57.4961 102.768 57.8086 102.715 58.2266 102.664C59.0781 102.563 59.7051 102.442 60.1074 102.301C60.1113 102.156 60.1133 102.065 60.1133 102.026C60.1133 101.596 60.0137 101.293 59.8145 101.117C59.5449 100.879 59.1445 100.76 58.6133 100.76C58.1172 100.76 57.75 100.848 57.5117 101.024C57.2773 101.195 57.1035 101.502 56.9902 101.943L55.959 101.803C56.0527 101.361 56.207 101.006 56.4219 100.736C56.6367 100.463 56.9473 100.254 57.3535 100.109C57.7598 99.9611 58.2305 99.8868 58.7656 99.8868C59.2969 99.8868 59.7285 99.9493 60.0605 100.074C60.3926 100.199 60.6367 100.358 60.793 100.549C60.9492 100.736 61.0586 100.975 61.1211 101.264C61.1562 101.443 61.1738 101.768 61.1738 102.236V103.643C61.1738 104.623 61.1953 105.244 61.2383 105.506C61.2852 105.764 61.375 106.012 61.5078 106.25H60.4062C60.2969 106.031 60.2266 105.776 60.1953 105.483ZM60.1074 103.127C59.7246 103.283 59.1504 103.416 58.3848 103.526C57.9512 103.588 57.6445 103.658 57.4648 103.736C57.2852 103.815 57.1465 103.93 57.0488 104.082C56.9512 104.231 56.9023 104.397 56.9023 104.58C56.9023 104.861 57.0078 105.096 57.2188 105.283C57.4336 105.471 57.7461 105.565 58.1562 105.565C58.5625 105.565 58.9238 105.477 59.2402 105.301C59.5566 105.121 59.7891 104.877 59.9375 104.568C60.0508 104.33 60.1074 103.979 60.1074 103.514V103.127ZM62.8027 106.25V100.027H63.752V100.971C63.9941 100.529 64.2168 100.238 64.4199 100.098C64.627 99.9572 64.8535 99.8868 65.0996 99.8868C65.4551 99.8868 65.8164 100 66.1836 100.227L65.8203 101.205C65.5625 101.053 65.3047 100.977 65.0469 100.977C64.8164 100.977 64.6094 101.047 64.4258 101.188C64.2422 101.324 64.1113 101.516 64.0332 101.762C63.916 102.137 63.8574 102.547 63.8574 102.992V106.25H62.8027ZM69.1133 105.307L69.2656 106.238C68.9688 106.301 68.7031 106.332 68.4688 106.332C68.0859 106.332 67.7891 106.272 67.5781 106.151C67.3672 106.029 67.2188 105.871 67.1328 105.676C67.0469 105.477 67.0039 105.061 67.0039 104.428V100.848H66.2305V100.027H67.0039V98.4865L68.0527 97.8536V100.027H69.1133V100.848H68.0527V104.486C68.0527 104.787 68.0703 104.981 68.1055 105.067C68.1445 105.152 68.2051 105.221 68.2871 105.272C68.373 105.322 68.4941 105.348 68.6504 105.348C68.7676 105.348 68.9219 105.334 69.1133 105.307ZM73.4961 98.8732V97.6603H74.5508V98.8732H73.4961ZM73.4961 106.25V100.027H74.5508V106.25H73.4961ZM76.1621 106.25V100.027H77.1113V100.912C77.5684 100.229 78.2285 99.8868 79.0918 99.8868C79.4668 99.8868 79.8105 99.9552 80.123 100.092C80.4395 100.225 80.6758 100.401 80.832 100.619C80.9883 100.838 81.0977 101.098 81.1602 101.399C81.1992 101.594 81.2188 101.936 81.2188 102.424V106.25H80.1641V102.465C80.1641 102.035 80.123 101.715 80.041 101.504C79.959 101.289 79.8125 101.119 79.6016 100.994C79.3945 100.865 79.1504 100.801 78.8691 100.801C78.4199 100.801 78.0312 100.943 77.7031 101.229C77.3789 101.514 77.2168 102.055 77.2168 102.852V106.25H76.1621ZM84.5703 106.25L82.2031 100.027H83.3164L84.6523 103.754C84.7969 104.156 84.9297 104.574 85.0508 105.008C85.1445 104.68 85.2754 104.285 85.4434 103.824L86.8262 100.027H87.9102L85.5547 106.25H84.5703ZM93.1016 104.246L94.1914 104.381C94.0195 105.018 93.7012 105.512 93.2363 105.863C92.7715 106.215 92.1777 106.391 91.4551 106.391C90.5449 106.391 89.8223 106.111 89.2871 105.553C88.7559 104.99 88.4902 104.203 88.4902 103.192C88.4902 102.145 88.7598 101.332 89.2988 100.754C89.8379 100.176 90.5371 99.8868 91.3965 99.8868C92.2285 99.8868 92.9082 100.17 93.4355 100.736C93.9629 101.303 94.2266 102.1 94.2266 103.127C94.2266 103.19 94.2246 103.283 94.2207 103.408H89.5801C89.6191 104.092 89.8125 104.615 90.1602 104.979C90.5078 105.342 90.9414 105.524 91.4609 105.524C91.8477 105.524 92.1777 105.422 92.4512 105.219C92.7246 105.016 92.9414 104.692 93.1016 104.246ZM89.6387 102.541H93.1133C93.0664 102.018 92.9336 101.625 92.7148 101.363C92.3789 100.957 91.9434 100.754 91.4082 100.754C90.9238 100.754 90.5156 100.916 90.1836 101.24C89.8555 101.565 89.6738 101.998 89.6387 102.541ZM95.0996 104.393L96.1426 104.229C96.2012 104.647 96.3633 104.967 96.6289 105.19C96.8984 105.412 97.2734 105.524 97.7539 105.524C98.2383 105.524 98.5977 105.426 98.832 105.231C99.0664 105.031 99.1836 104.799 99.1836 104.533C99.1836 104.295 99.0801 104.108 98.873 103.971C98.7285 103.877 98.3691 103.758 97.7949 103.613C97.0215 103.418 96.4844 103.25 96.1836 103.109C95.8867 102.965 95.6602 102.768 95.5039 102.518C95.3516 102.264 95.2754 101.984 95.2754 101.68C95.2754 101.402 95.3379 101.147 95.4629 100.912C95.5918 100.674 95.7656 100.477 95.9844 100.32C96.1484 100.199 96.3711 100.098 96.6523 100.016C96.9375 99.9298 97.2422 99.8868 97.5664 99.8868C98.0547 99.8868 98.4824 99.9572 98.8496 100.098C99.2207 100.238 99.4941 100.43 99.6699 100.672C99.8457 100.91 99.9668 101.231 100.033 101.633L99.002 101.774C98.9551 101.453 98.8184 101.203 98.5918 101.024C98.3691 100.844 98.0527 100.754 97.6426 100.754C97.1582 100.754 96.8125 100.834 96.6055 100.994C96.3984 101.154 96.2949 101.342 96.2949 101.557C96.2949 101.693 96.3379 101.817 96.4238 101.926C96.5098 102.039 96.6445 102.133 96.8281 102.207C96.9336 102.246 97.2441 102.336 97.7598 102.477C98.5059 102.676 99.0254 102.84 99.3184 102.969C99.6152 103.094 99.8477 103.277 100.016 103.52C100.184 103.762 100.268 104.063 100.268 104.422C100.268 104.774 100.164 105.106 99.957 105.418C99.7539 105.727 99.459 105.967 99.0723 106.139C98.6855 106.307 98.248 106.391 97.7598 106.391C96.9512 106.391 96.334 106.223 95.9082 105.887C95.4863 105.551 95.2168 105.053 95.0996 104.393ZM103.824 105.307L103.977 106.238C103.68 106.301 103.414 106.332 103.18 106.332C102.797 106.332 102.5 106.272 102.289 106.151C102.078 106.029 101.93 105.871 101.844 105.676C101.758 105.477 101.715 105.061 101.715 104.428V100.848H100.941V100.027H101.715V98.4865L102.764 97.8536V100.027H103.824V100.848H102.764V104.486C102.764 104.787 102.781 104.981 102.816 105.067C102.855 105.152 102.916 105.221 102.998 105.272C103.084 105.322 103.205 105.348 103.361 105.348C103.479 105.348 103.633 105.334 103.824 105.307ZM104.867 98.8732V97.6603H105.922V98.8732H104.867ZM104.867 106.25V100.027H105.922V106.25H104.867ZM107.533 106.25V100.027H108.482V100.912C108.939 100.229 109.6 99.8868 110.463 99.8868C110.838 99.8868 111.182 99.9552 111.494 100.092C111.811 100.225 112.047 100.401 112.203 100.619C112.359 100.838 112.469 101.098 112.531 101.399C112.57 101.594 112.59 101.936 112.59 102.424V106.25H111.535V102.465C111.535 102.035 111.494 101.715 111.412 101.504C111.33 101.289 111.184 101.119 110.973 100.994C110.766 100.865 110.521 100.801 110.24 100.801C109.791 100.801 109.402 100.943 109.074 101.229C108.75 101.514 108.588 102.055 108.588 102.852V106.25H107.533ZM114.02 106.766L115.045 106.918C115.088 107.234 115.207 107.465 115.402 107.609C115.664 107.805 116.021 107.902 116.475 107.902C116.963 107.902 117.34 107.805 117.605 107.609C117.871 107.414 118.051 107.141 118.145 106.789C118.199 106.574 118.225 106.123 118.221 105.436C117.76 105.979 117.186 106.25 116.498 106.25C115.643 106.25 114.98 105.942 114.512 105.324C114.043 104.707 113.809 103.967 113.809 103.104C113.809 102.51 113.916 101.963 114.131 101.463C114.346 100.959 114.656 100.57 115.062 100.297C115.473 100.024 115.953 99.8868 116.504 99.8868C117.238 99.8868 117.844 100.184 118.32 100.777V100.027H119.293V105.406C119.293 106.375 119.193 107.061 118.994 107.463C118.799 107.869 118.486 108.19 118.057 108.424C117.631 108.658 117.105 108.776 116.48 108.776C115.738 108.776 115.139 108.608 114.682 108.272C114.225 107.94 114.004 107.438 114.02 106.766ZM114.893 103.027C114.893 103.844 115.055 104.44 115.379 104.815C115.703 105.19 116.109 105.377 116.598 105.377C117.082 105.377 117.488 105.192 117.816 104.82C118.145 104.445 118.309 103.859 118.309 103.063C118.309 102.301 118.139 101.727 117.799 101.34C117.463 100.953 117.057 100.76 116.58 100.76C116.111 100.76 115.713 100.951 115.385 101.334C115.057 101.713 114.893 102.277 114.893 103.027ZM125.381 106.25L123.477 100.027H124.566L125.557 103.619L125.926 104.955C125.941 104.889 126.049 104.461 126.248 103.672L127.238 100.027H128.322L129.254 103.637L129.564 104.826L129.922 103.625L130.988 100.027H132.014L130.068 106.25H128.973L127.982 102.524L127.742 101.463L126.482 106.25H125.381ZM132.91 98.8732V97.6603H133.965V98.8732H132.91ZM132.91 106.25V100.027H133.965V106.25H132.91ZM137.879 105.307L138.031 106.238C137.734 106.301 137.469 106.332 137.234 106.332C136.852 106.332 136.555 106.272 136.344 106.151C136.133 106.029 135.984 105.871 135.898 105.676C135.812 105.477 135.77 105.061 135.77 104.428V100.848H134.996V100.027H135.77V98.4865L136.818 97.8536V100.027H137.879V100.848H136.818V104.486C136.818 104.787 136.836 104.981 136.871 105.067C136.91 105.152 136.971 105.221 137.053 105.272C137.139 105.322 137.26 105.348 137.416 105.348C137.533 105.348 137.688 105.334 137.879 105.307ZM138.916 106.25V97.6603H139.971V100.742C140.463 100.172 141.084 99.8868 141.834 99.8868C142.295 99.8868 142.695 99.9786 143.035 100.162C143.375 100.342 143.617 100.592 143.762 100.912C143.91 101.233 143.984 101.697 143.984 102.307V106.25H142.93V102.307C142.93 101.779 142.814 101.397 142.584 101.158C142.357 100.916 142.035 100.795 141.617 100.795C141.305 100.795 141.01 100.877 140.732 101.041C140.459 101.201 140.264 101.42 140.146 101.697C140.029 101.975 139.971 102.358 139.971 102.846V106.25H138.916ZM152.996 105.483C152.605 105.815 152.229 106.049 151.865 106.186C151.506 106.322 151.119 106.391 150.705 106.391C150.021 106.391 149.496 106.225 149.129 105.893C148.762 105.557 148.578 105.129 148.578 104.609C148.578 104.305 148.646 104.027 148.783 103.777C148.924 103.524 149.105 103.32 149.328 103.168C149.555 103.016 149.809 102.901 150.09 102.822C150.297 102.768 150.609 102.715 151.027 102.664C151.879 102.563 152.506 102.442 152.908 102.301C152.912 102.156 152.914 102.065 152.914 102.026C152.914 101.596 152.814 101.293 152.615 101.117C152.346 100.879 151.945 100.76 151.414 100.76C150.918 100.76 150.551 100.848 150.312 101.024C150.078 101.195 149.904 101.502 149.791 101.943L148.76 101.803C148.854 101.361 149.008 101.006 149.223 100.736C149.438 100.463 149.748 100.254 150.154 100.109C150.561 99.9611 151.031 99.8868 151.566 99.8868C152.098 99.8868 152.529 99.9493 152.861 100.074C153.193 100.199 153.438 100.358 153.594 100.549C153.75 100.736 153.859 100.975 153.922 101.264C153.957 101.443 153.975 101.768 153.975 102.236V103.643C153.975 104.623 153.996 105.244 154.039 105.506C154.086 105.764 154.176 106.012 154.309 106.25H153.207C153.098 106.031 153.027 105.776 152.996 105.483ZM152.908 103.127C152.525 103.283 151.951 103.416 151.186 103.526C150.752 103.588 150.445 103.658 150.266 103.736C150.086 103.815 149.947 103.93 149.85 104.082C149.752 104.231 149.703 104.397 149.703 104.58C149.703 104.861 149.809 105.096 150.02 105.283C150.234 105.471 150.547 105.565 150.957 105.565C151.363 105.565 151.725 105.477 152.041 105.301C152.357 105.121 152.59 104.877 152.738 104.568C152.852 104.33 152.908 103.979 152.908 103.514V103.127ZM155.193 104.393L156.236 104.229C156.295 104.647 156.457 104.967 156.723 105.19C156.992 105.412 157.367 105.524 157.848 105.524C158.332 105.524 158.691 105.426 158.926 105.231C159.16 105.031 159.277 104.799 159.277 104.533C159.277 104.295 159.174 104.108 158.967 103.971C158.822 103.877 158.463 103.758 157.889 103.613C157.115 103.418 156.578 103.25 156.277 103.109C155.98 102.965 155.754 102.768 155.598 102.518C155.445 102.264 155.369 101.984 155.369 101.68C155.369 101.402 155.432 101.147 155.557 100.912C155.686 100.674 155.859 100.477 156.078 100.32C156.242 100.199 156.465 100.098 156.746 100.016C157.031 99.9298 157.336 99.8868 157.66 99.8868C158.148 99.8868 158.576 99.9572 158.943 100.098C159.314 100.238 159.588 100.43 159.764 100.672C159.939 100.91 160.061 101.231 160.127 101.633L159.096 101.774C159.049 101.453 158.912 101.203 158.686 101.024C158.463 100.844 158.146 100.754 157.736 100.754C157.252 100.754 156.906 100.834 156.699 100.994C156.492 101.154 156.389 101.342 156.389 101.557C156.389 101.693 156.432 101.817 156.518 101.926C156.604 102.039 156.738 102.133 156.922 102.207C157.027 102.246 157.338 102.336 157.854 102.477C158.6 102.676 159.119 102.84 159.412 102.969C159.709 103.094 159.941 103.277 160.109 103.52C160.277 103.762 160.361 104.063 160.361 104.422C160.361 104.774 160.258 105.106 160.051 105.418C159.848 105.727 159.553 105.967 159.166 106.139C158.779 106.307 158.342 106.391 157.854 106.391C157.045 106.391 156.428 106.223 156.002 105.887C155.58 105.551 155.311 105.053 155.193 104.393ZM164.932 106.25V97.6603H165.986V106.25H164.932ZM167.234 103.139C167.234 101.986 167.555 101.133 168.195 100.578C168.73 100.117 169.383 99.8868 170.152 99.8868C171.008 99.8868 171.707 100.168 172.25 100.731C172.793 101.289 173.064 102.063 173.064 103.051C173.064 103.852 172.943 104.483 172.701 104.943C172.463 105.401 172.113 105.756 171.652 106.01C171.195 106.264 170.695 106.391 170.152 106.391C169.281 106.391 168.576 106.111 168.037 105.553C167.502 104.994 167.234 104.19 167.234 103.139ZM168.318 103.139C168.318 103.936 168.492 104.533 168.84 104.932C169.188 105.326 169.625 105.524 170.152 105.524C170.676 105.524 171.111 105.324 171.459 104.926C171.807 104.527 171.98 103.92 171.98 103.104C171.98 102.334 171.805 101.752 171.453 101.358C171.105 100.959 170.672 100.76 170.152 100.76C169.625 100.76 169.188 100.957 168.84 101.352C168.492 101.746 168.318 102.342 168.318 103.139ZM175.455 106.25L173.551 100.027H174.641L175.631 103.619L176 104.955C176.016 104.889 176.123 104.461 176.322 103.672L177.312 100.027H178.396L179.328 103.637L179.639 104.826L179.996 103.625L181.062 100.027H182.088L180.143 106.25H179.047L178.057 102.524L177.816 101.463L176.557 106.25H175.455ZM190.379 105.483C189.988 105.815 189.611 106.049 189.248 106.186C188.889 106.322 188.502 106.391 188.088 106.391C187.404 106.391 186.879 106.225 186.512 105.893C186.145 105.557 185.961 105.129 185.961 104.609C185.961 104.305 186.029 104.027 186.166 103.777C186.307 103.524 186.488 103.32 186.711 103.168C186.938 103.016 187.191 102.901 187.473 102.822C187.68 102.768 187.992 102.715 188.41 102.664C189.262 102.563 189.889 102.442 190.291 102.301C190.295 102.156 190.297 102.065 190.297 102.026C190.297 101.596 190.197 101.293 189.998 101.117C189.729 100.879 189.328 100.76 188.797 100.76C188.301 100.76 187.934 100.848 187.695 101.024C187.461 101.195 187.287 101.502 187.174 101.943L186.143 101.803C186.236 101.361 186.391 101.006 186.605 100.736C186.82 100.463 187.131 100.254 187.537 100.109C187.943 99.9611 188.414 99.8868 188.949 99.8868C189.48 99.8868 189.912 99.9493 190.244 100.074C190.576 100.199 190.82 100.358 190.977 100.549C191.133 100.736 191.242 100.975 191.305 101.264C191.34 101.443 191.357 101.768 191.357 102.236V103.643C191.357 104.623 191.379 105.244 191.422 105.506C191.469 105.764 191.559 106.012 191.691 106.25H190.59C190.48 106.031 190.41 105.776 190.379 105.483ZM190.291 103.127C189.908 103.283 189.334 103.416 188.568 103.526C188.135 103.588 187.828 103.658 187.648 103.736C187.469 103.815 187.33 103.93 187.232 104.082C187.135 104.231 187.086 104.397 187.086 104.58C187.086 104.861 187.191 105.096 187.402 105.283C187.617 105.471 187.93 105.565 188.34 105.565C188.746 105.565 189.107 105.477 189.424 105.301C189.74 105.121 189.973 104.877 190.121 104.568C190.234 104.33 190.291 103.979 190.291 103.514V103.127ZM192.576 104.393L193.619 104.229C193.678 104.647 193.84 104.967 194.105 105.19C194.375 105.412 194.75 105.524 195.23 105.524C195.715 105.524 196.074 105.426 196.309 105.231C196.543 105.031 196.66 104.799 196.66 104.533C196.66 104.295 196.557 104.108 196.35 103.971C196.205 103.877 195.846 103.758 195.271 103.613C194.498 103.418 193.961 103.25 193.66 103.109C193.363 102.965 193.137 102.768 192.98 102.518C192.828 102.264 192.752 101.984 192.752 101.68C192.752 101.402 192.814 101.147 192.939 100.912C193.068 100.674 193.242 100.477 193.461 100.32C193.625 100.199 193.848 100.098 194.129 100.016C194.414 99.9298 194.719 99.8868 195.043 99.8868C195.531 99.8868 195.959 99.9572 196.326 100.098C196.697 100.238 196.971 100.43 197.146 100.672C197.322 100.91 197.443 101.231 197.51 101.633L196.479 101.774C196.432 101.453 196.295 101.203 196.068 101.024C195.846 100.844 195.529 100.754 195.119 100.754C194.635 100.754 194.289 100.834 194.082 100.994C193.875 101.154 193.771 101.342 193.771 101.557C193.771 101.693 193.814 101.817 193.9 101.926C193.986 102.039 194.121 102.133 194.305 102.207C194.41 102.246 194.721 102.336 195.236 102.477C195.982 102.676 196.502 102.84 196.795 102.969C197.092 103.094 197.324 103.277 197.492 103.52C197.66 103.762 197.744 104.063 197.744 104.422C197.744 104.774 197.641 105.106 197.434 105.418C197.23 105.727 196.936 105.967 196.549 106.139C196.162 106.307 195.725 106.391 195.236 106.391C194.428 106.391 193.811 106.223 193.385 105.887C192.963 105.551 192.693 105.053 192.576 104.393ZM50.1934 116.66L49.6074 117.527H48.3887C48.5137 117.668 48.6172 117.828 48.6992 118.008C48.7812 118.188 48.8398 118.395 48.875 118.629H50.1934L49.6074 119.496H48.875C48.8281 119.781 48.7344 120.045 48.5938 120.287C48.457 120.526 48.2754 120.733 48.0488 120.908C47.8223 121.08 47.5527 121.215 47.2402 121.313C46.9316 121.41 46.584 121.459 46.1973 121.459L49.7598 125.25H48.2012L44.7617 121.553V120.686H45.623C45.8926 120.686 46.1426 120.66 46.373 120.609C46.6035 120.559 46.8086 120.483 46.9883 120.381C47.168 120.279 47.3164 120.156 47.4336 120.012C47.5547 119.863 47.6387 119.692 47.6855 119.496H44.4688L45.0547 118.629H47.6797C47.5898 118.293 47.3965 118.026 47.0996 117.826C46.8066 117.627 46.4062 117.527 45.8984 117.527H44.4688L45.0547 116.66H50.1934ZM55.1504 125.25H54.0957V118.529C53.8418 118.772 53.5078 119.014 53.0938 119.256C52.6836 119.498 52.3145 119.68 51.9863 119.801V118.781C52.5762 118.504 53.0918 118.168 53.5332 117.774C53.9746 117.379 54.2871 116.996 54.4707 116.625H55.1504V125.25ZM58.4492 125.25V124.049H59.6504V125.25H58.4492ZM64.5781 122.49L65.6504 122.397C65.7012 122.826 65.8184 123.18 66.002 123.457C66.1895 123.731 66.4785 123.953 66.8691 124.125C67.2598 124.293 67.6992 124.377 68.1875 124.377C68.6211 124.377 69.0039 124.313 69.3359 124.184C69.668 124.055 69.9141 123.879 70.0742 123.656C70.2383 123.43 70.3203 123.184 70.3203 122.918C70.3203 122.649 70.2422 122.414 70.0859 122.215C69.9297 122.012 69.6719 121.842 69.3125 121.705C69.082 121.615 68.5723 121.477 67.7832 121.289C66.9941 121.098 66.4414 120.918 66.125 120.75C65.7148 120.535 65.4082 120.27 65.2051 119.953C65.0059 119.633 64.9062 119.276 64.9062 118.881C64.9062 118.447 65.0293 118.043 65.2754 117.668C65.5215 117.289 65.8809 117.002 66.3535 116.807C66.8262 116.611 67.3516 116.514 67.9297 116.514C68.5664 116.514 69.127 116.617 69.6113 116.824C70.0996 117.027 70.4746 117.328 70.7363 117.727C70.998 118.125 71.1387 118.576 71.1582 119.08L70.0684 119.162C70.0098 118.619 69.8105 118.209 69.4707 117.932C69.1348 117.654 68.6367 117.516 67.9766 117.516C67.2891 117.516 66.7871 117.643 66.4707 117.897C66.1582 118.147 66.002 118.449 66.002 118.805C66.002 119.113 66.1133 119.367 66.3359 119.567C66.5547 119.766 67.125 119.971 68.0469 120.182C68.9727 120.389 69.6074 120.57 69.9512 120.727C70.4512 120.957 70.8203 121.25 71.0586 121.606C71.2969 121.957 71.416 122.363 71.416 122.824C71.416 123.281 71.2852 123.713 71.0234 124.119C70.7617 124.522 70.3848 124.836 69.8926 125.063C69.4043 125.285 68.8535 125.397 68.2402 125.397C67.4629 125.397 66.8105 125.283 66.2832 125.057C65.7598 124.83 65.3477 124.49 65.0469 124.037C64.75 123.58 64.5938 123.065 64.5781 122.49ZM77.0938 123.246L78.1836 123.381C78.0117 124.018 77.6934 124.512 77.2285 124.863C76.7637 125.215 76.1699 125.391 75.4473 125.391C74.5371 125.391 73.8145 125.111 73.2793 124.553C72.748 123.99 72.4824 123.203 72.4824 122.192C72.4824 121.145 72.752 120.332 73.291 119.754C73.8301 119.176 74.5293 118.887 75.3887 118.887C76.2207 118.887 76.9004 119.17 77.4277 119.736C77.9551 120.303 78.2188 121.1 78.2188 122.127C78.2188 122.19 78.2168 122.283 78.2129 122.408H73.5723C73.6113 123.092 73.8047 123.615 74.1523 123.979C74.5 124.342 74.9336 124.524 75.4531 124.524C75.8398 124.524 76.1699 124.422 76.4434 124.219C76.7168 124.016 76.9336 123.692 77.0938 123.246ZM73.6309 121.541H77.1055C77.0586 121.018 76.9258 120.625 76.707 120.363C76.3711 119.957 75.9355 119.754 75.4004 119.754C74.916 119.754 74.5078 119.916 74.1758 120.24C73.8477 120.565 73.666 120.998 73.6309 121.541ZM83.5742 122.971L84.6113 123.106C84.498 123.82 84.207 124.381 83.7383 124.787C83.2734 125.19 82.7012 125.391 82.0215 125.391C81.1699 125.391 80.4844 125.113 79.9648 124.559C79.4492 124 79.1914 123.201 79.1914 122.162C79.1914 121.49 79.3027 120.902 79.5254 120.399C79.748 119.895 80.0859 119.518 80.5391 119.268C80.9961 119.014 81.4922 118.887 82.0273 118.887C82.7031 118.887 83.2559 119.059 83.6855 119.402C84.1152 119.742 84.3906 120.227 84.5117 120.856L83.4863 121.014C83.3887 120.596 83.2148 120.281 82.9648 120.07C82.7188 119.859 82.4199 119.754 82.0684 119.754C81.5371 119.754 81.1055 119.945 80.7734 120.328C80.4414 120.707 80.2754 121.309 80.2754 122.133C80.2754 122.969 80.4355 123.576 80.7559 123.955C81.0762 124.334 81.4941 124.524 82.0098 124.524C82.4238 124.524 82.7695 124.397 83.0469 124.143C83.3242 123.889 83.5 123.498 83.5742 122.971ZM89.5918 125.25V124.336C89.1074 125.039 88.4492 125.391 87.6172 125.391C87.25 125.391 86.9062 125.32 86.5859 125.18C86.2695 125.039 86.0332 124.863 85.877 124.652C85.7246 124.438 85.6172 124.176 85.5547 123.867C85.5117 123.66 85.4902 123.332 85.4902 122.883V119.027H86.5449V122.479C86.5449 123.029 86.5664 123.401 86.6094 123.592C86.6758 123.869 86.8164 124.088 87.0312 124.248C87.2461 124.404 87.5117 124.483 87.8281 124.483C88.1445 124.483 88.4414 124.402 88.7188 124.242C88.9961 124.078 89.1914 123.858 89.3047 123.58C89.4219 123.299 89.4805 122.893 89.4805 122.361V119.027H90.5352V125.25H89.5918ZM92.1816 125.25V119.027H93.1309V119.971C93.373 119.529 93.5957 119.238 93.7988 119.098C94.0059 118.957 94.2324 118.887 94.4785 118.887C94.834 118.887 95.1953 119 95.5625 119.227L95.1992 120.205C94.9414 120.053 94.6836 119.977 94.4258 119.977C94.1953 119.977 93.9883 120.047 93.8047 120.188C93.6211 120.324 93.4902 120.516 93.4121 120.762C93.2949 121.137 93.2363 121.547 93.2363 121.992V125.25H92.1816ZM100.449 123.246L101.539 123.381C101.367 124.018 101.049 124.512 100.584 124.863C100.119 125.215 99.5254 125.391 98.8027 125.391C97.8926 125.391 97.1699 125.111 96.6348 124.553C96.1035 123.99 95.8379 123.203 95.8379 122.192C95.8379 121.145 96.1074 120.332 96.6465 119.754C97.1855 119.176 97.8848 118.887 98.7441 118.887C99.5762 118.887 100.256 119.17 100.783 119.736C101.311 120.303 101.574 121.1 101.574 122.127C101.574 122.19 101.572 122.283 101.568 122.408H96.9277C96.9668 123.092 97.1602 123.615 97.5078 123.979C97.8555 124.342 98.2891 124.524 98.8086 124.524C99.1953 124.524 99.5254 124.422 99.7988 124.219C100.072 124.016 100.289 123.692 100.449 123.246ZM96.9863 121.541H100.461C100.414 121.018 100.281 120.625 100.062 120.363C99.7266 119.957 99.291 119.754 98.7559 119.754C98.2715 119.754 97.8633 119.916 97.5312 120.24C97.2031 120.565 97.0215 120.998 96.9863 121.541ZM106.162 127.647L106.045 126.656C106.275 126.719 106.477 126.75 106.648 126.75C106.883 126.75 107.07 126.711 107.211 126.633C107.352 126.555 107.467 126.445 107.557 126.305C107.623 126.199 107.73 125.938 107.879 125.52C107.898 125.461 107.93 125.375 107.973 125.262L105.611 119.027H106.748L108.043 122.631C108.211 123.088 108.361 123.568 108.494 124.072C108.615 123.588 108.76 123.115 108.928 122.654L110.258 119.027H111.312L108.945 125.356C108.691 126.039 108.494 126.51 108.354 126.768C108.166 127.115 107.951 127.369 107.709 127.529C107.467 127.693 107.178 127.776 106.842 127.776C106.639 127.776 106.412 127.733 106.162 127.647ZM111.816 122.139C111.816 120.986 112.137 120.133 112.777 119.578C113.312 119.117 113.965 118.887 114.734 118.887C115.59 118.887 116.289 119.168 116.832 119.731C117.375 120.289 117.646 121.063 117.646 122.051C117.646 122.852 117.525 123.483 117.283 123.943C117.045 124.401 116.695 124.756 116.234 125.01C115.777 125.264 115.277 125.391 114.734 125.391C113.863 125.391 113.158 125.111 112.619 124.553C112.084 123.994 111.816 123.19 111.816 122.139ZM112.9 122.139C112.9 122.936 113.074 123.533 113.422 123.932C113.77 124.326 114.207 124.524 114.734 124.524C115.258 124.524 115.693 124.324 116.041 123.926C116.389 123.527 116.562 122.92 116.562 122.104C116.562 121.334 116.387 120.752 116.035 120.358C115.688 119.959 115.254 119.76 114.734 119.76C114.207 119.76 113.77 119.957 113.422 120.352C113.074 120.746 112.9 121.342 112.9 122.139ZM122.967 125.25V124.336C122.482 125.039 121.824 125.391 120.992 125.391C120.625 125.391 120.281 125.32 119.961 125.18C119.645 125.039 119.408 124.863 119.252 124.652C119.1 124.438 118.992 124.176 118.93 123.867C118.887 123.66 118.865 123.332 118.865 122.883V119.027H119.92V122.479C119.92 123.029 119.941 123.401 119.984 123.592C120.051 123.869 120.191 124.088 120.406 124.248C120.621 124.404 120.887 124.483 121.203 124.483C121.52 124.483 121.816 124.402 122.094 124.242C122.371 124.078 122.566 123.858 122.68 123.58C122.797 123.299 122.855 122.893 122.855 122.361V119.027H123.91V125.25H122.967ZM125.557 125.25V119.027H126.506V119.971C126.748 119.529 126.971 119.238 127.174 119.098C127.381 118.957 127.607 118.887 127.854 118.887C128.209 118.887 128.57 119 128.938 119.227L128.574 120.205C128.316 120.053 128.059 119.977 127.801 119.977C127.57 119.977 127.363 120.047 127.18 120.188C126.996 120.324 126.865 120.516 126.787 120.762C126.67 121.137 126.611 121.547 126.611 121.992V125.25H125.557ZM133.156 125.25V119.848H132.225V119.027H133.156V118.365C133.156 117.947 133.193 117.637 133.268 117.434C133.369 117.16 133.547 116.94 133.801 116.772C134.059 116.6 134.418 116.514 134.879 116.514C135.176 116.514 135.504 116.549 135.863 116.619L135.705 117.539C135.486 117.5 135.279 117.481 135.084 117.481C134.764 117.481 134.537 117.549 134.404 117.686C134.271 117.822 134.205 118.078 134.205 118.453V119.027H135.418V119.848H134.205V125.25H133.156ZM140.322 125.25V124.336C139.838 125.039 139.18 125.391 138.348 125.391C137.98 125.391 137.637 125.32 137.316 125.18C137 125.039 136.764 124.863 136.607 124.652C136.455 124.438 136.348 124.176 136.285 123.867C136.242 123.66 136.221 123.332 136.221 122.883V119.027H137.275V122.479C137.275 123.029 137.297 123.401 137.34 123.592C137.406 123.869 137.547 124.088 137.762 124.248C137.977 124.404 138.242 124.483 138.559 124.483C138.875 124.483 139.172 124.402 139.449 124.242C139.727 124.078 139.922 123.858 140.035 123.58C140.152 123.299 140.211 122.893 140.211 122.361V119.027H141.266V125.25H140.322ZM145.227 124.307L145.379 125.238C145.082 125.301 144.816 125.332 144.582 125.332C144.199 125.332 143.902 125.272 143.691 125.151C143.48 125.029 143.332 124.871 143.246 124.676C143.16 124.477 143.117 124.061 143.117 123.428V119.848H142.344V119.027H143.117V117.486L144.166 116.854V119.027H145.227V119.848H144.166V123.486C144.166 123.787 144.184 123.981 144.219 124.067C144.258 124.152 144.318 124.221 144.4 124.272C144.486 124.322 144.607 124.348 144.764 124.348C144.881 124.348 145.035 124.334 145.227 124.307ZM150.342 125.25V124.336C149.857 125.039 149.199 125.391 148.367 125.391C148 125.391 147.656 125.32 147.336 125.18C147.02 125.039 146.783 124.863 146.627 124.652C146.475 124.438 146.367 124.176 146.305 123.867C146.262 123.66 146.24 123.332 146.24 122.883V119.027H147.295V122.479C147.295 123.029 147.316 123.401 147.359 123.592C147.426 123.869 147.566 124.088 147.781 124.248C147.996 124.404 148.262 124.483 148.578 124.483C148.895 124.483 149.191 124.402 149.469 124.242C149.746 124.078 149.941 123.858 150.055 123.58C150.172 123.299 150.23 122.893 150.23 122.361V119.027H151.285V125.25H150.342ZM152.932 125.25V119.027H153.881V119.971C154.123 119.529 154.346 119.238 154.549 119.098C154.756 118.957 154.982 118.887 155.229 118.887C155.584 118.887 155.945 119 156.312 119.227L155.949 120.205C155.691 120.053 155.434 119.977 155.176 119.977C154.945 119.977 154.738 120.047 154.555 120.188C154.371 120.324 154.24 120.516 154.162 120.762C154.045 121.137 153.986 121.547 153.986 121.992V125.25H152.932ZM161.199 123.246L162.289 123.381C162.117 124.018 161.799 124.512 161.334 124.863C160.869 125.215 160.275 125.391 159.553 125.391C158.643 125.391 157.92 125.111 157.385 124.553C156.854 123.99 156.588 123.203 156.588 122.192C156.588 121.145 156.857 120.332 157.396 119.754C157.936 119.176 158.635 118.887 159.494 118.887C160.326 118.887 161.006 119.17 161.533 119.736C162.061 120.303 162.324 121.1 162.324 122.127C162.324 122.19 162.322 122.283 162.318 122.408H157.678C157.717 123.092 157.91 123.615 158.258 123.979C158.605 124.342 159.039 124.524 159.559 124.524C159.945 124.524 160.275 124.422 160.549 124.219C160.822 124.016 161.039 123.692 161.199 123.246ZM157.736 121.541H161.211C161.164 121.018 161.031 120.625 160.812 120.363C160.477 119.957 160.041 119.754 159.506 119.754C159.021 119.754 158.613 119.916 158.281 120.24C157.953 120.565 157.771 120.998 157.736 121.541ZM163.918 125.25V124.049H165.119V125.25H163.918Z" fill="#FFFBEB"/>
</g>
<g filter="url(#filter3_d_1527_525)">
<path d="M328.066 142.4C343.53 142.4 356.066 129.864 356.066 114.4C356.066 98.9361 343.53 86.4 328.066 86.4C312.602 86.4 300.066 98.9361 300.066 114.4C300.066 129.864 312.602 142.4 328.066 142.4Z" fill="#F59E0B" stroke="#B45309" stroke-width="1.12"/>
<path d="M328.067 136.8C340.438 136.8 350.467 126.771 350.467 114.4C350.467 102.029 340.438 92.0001 328.067 92.0001C315.695 92.0001 305.667 102.029 305.667 114.4C305.667 126.771 315.695 136.8 328.067 136.8Z" stroke="white" stroke-opacity="0.4" stroke-width="2.24"/>
<path d="M288.867 153.6C304.331 153.6 316.867 141.064 316.867 125.6C316.867 110.136 304.331 97.6002 288.867 97.6002C273.403 97.6002 260.867 110.136 260.867 125.6C260.867 141.064 273.403 153.6 288.867 153.6Z" fill="#FBBF24" stroke="#D97706" stroke-width="1.12"/>
<path d="M288.866 148C301.237 148 311.266 137.971 311.266 125.6C311.266 113.229 301.237 103.2 288.866 103.2C276.495 103.2 266.466 113.229 266.466 125.6C266.466 137.971 276.495 148 288.866 148Z" stroke="white" stroke-opacity="0.4" stroke-width="2.24"/>
<path d="M311.267 173.76C328.586 173.76 342.627 159.72 342.627 142.4C342.627 125.081 328.586 111.04 311.267 111.04C293.947 111.04 279.907 125.081 279.907 142.4C279.907 159.72 293.947 173.76 311.267 173.76Z" fill="#FFD700" stroke="#B45309" stroke-width="1.12"/>
<path d="M311.267 167.04C324.875 167.04 335.907 156.008 335.907 142.4C335.907 128.792 324.875 117.76 311.267 117.76C297.659 117.76 286.627 128.792 286.627 142.4C286.627 156.008 297.659 167.04 311.267 167.04Z" stroke="white" stroke-opacity="0.5" stroke-width="2.24"/>
<path d="M307.907 133.44L314.627 142.4L307.907 151.36" stroke="#B45309" stroke-width="2.24" stroke-linecap="round" stroke-linejoin="round"/>
<path opacity="0.3" d="M311.267 173.76C328.586 173.76 342.627 159.72 342.627 142.4C342.627 125.081 328.586 111.04 311.267 111.04C293.947 111.04 279.907 125.081 279.907 142.4C279.907 159.72 293.947 173.76 311.267 173.76Z" fill="url(#paint1_linear_1527_525)"/>
</g>
</g>
</g>
<defs>
<filter id="filter0_dd_1527_525" x="0" y="0" width="373.667" height="200" filterUnits="userSpaceOnUse" color-interpolation-filters="sRGB">
<feFlood flood-opacity="0" result="BackgroundImageFix"/>
<feColorMatrix in="SourceAlpha" type="matrix" values="0 0 0 0 0 0 0 0 0 0 0 0 0 0 0 0 0 0 127 0" result="hardAlpha"/>
<feMorphology radius="6" operator="erode" in="SourceAlpha" result="effect1_dropShadow_1527_525"/>
<feOffset dy="8"/>
<feGaussianBlur stdDeviation="5"/>
<feComposite in2="hardAlpha" operator="out"/>
<feColorMatrix type="matrix" values="0 0 0 0 0.994272 0 0 0 0 0.602093 0 0 0 0 0 0 0 0 0.2 0"/>
<feBlend mode="normal" in2="BackgroundImageFix" result="effect1_dropShadow_1527_525"/>
<feColorMatrix in="SourceAlpha" type="matrix" values="0 0 0 0 0 0 0 0 0 0 0 0 0 0 0 0 0 0 127 0" result="hardAlpha"/>
<feMorphology radius="5" operator="erode" in="SourceAlpha" result="effect2_dropShadow_1527_525"/>
<feOffset dy="20"/>
<feGaussianBlur stdDeviation="12.5"/>
<feComposite in2="hardAlpha" operator="out"/>
<feColorMatrix type="matrix" values="0 0 0 0 0.994272 0 0 0 0 0.602093 0 0 0 0 0 0 0 0 0.2 0"/>
<feBlend mode="normal" in2="effect1_dropShadow_1527_525" result="effect2_dropShadow_1527_525"/>
<feBlend mode="normal" in="SourceGraphic" in2="effect2_dropShadow_1527_525" result="shape"/>
</filter>
<filter id="filter1_f_1527_525" x="153.667" y="-120" width="320" height="320" filterUnits="userSpaceOnUse" color-interpolation-filters="sRGB">
<feFlood flood-opacity="0" result="BackgroundImageFix"/>
<feBlend mode="normal" in="SourceGraphic" in2="BackgroundImageFix" result="shape"/>
<feGaussianBlur stdDeviation="40" result="effect1_foregroundBlur_1527_525"/>
</filter>
<filter id="filter2_f_1527_525" x="-68" y="-95.9999" width="384" height="384" filterUnits="userSpaceOnUse" color-interpolation-filters="sRGB">
<feFlood flood-opacity="0" result="BackgroundImageFix"/>
<feBlend mode="normal" in="SourceGraphic" in2="BackgroundImageFix" result="shape"/>
<feGaussianBlur stdDeviation="64" result="effect1_foregroundBlur_1527_525"/>
</filter>
<filter id="filter3_d_1527_525" x="199.667" y="39.0001" width="212" height="212" filterUnits="userSpaceOnUse" color-interpolation-filters="sRGB">
<feFlood flood-opacity="0" result="BackgroundImageFix"/>
<feColorMatrix in="SourceAlpha" type="matrix" values="0 0 0 0 0 0 0 0 0 0 0 0 0 0 0 0 0 0 127 0" result="hardAlpha"/>
<feOffset dy="25"/>
<feGaussianBlur stdDeviation="25"/>
<feColorMatrix type="matrix" values="0 0 0 0 0 0 0 0 0 0 0 0 0 0 0 0 0 0 0.15 0"/>
<feBlend mode="normal" in2="BackgroundImageFix" result="effect1_dropShadow_1527_525"/>
<feBlend mode="normal" in="SourceGraphic" in2="effect1_dropShadow_1527_525" result="shape"/>
</filter>
<linearGradient id="paint0_linear_1527_525" x1="0" y1="0" x2="124.759" y2="260.175" gradientUnits="userSpaceOnUse">
<stop stop-color="#FFD230"/>
<stop offset="0.5" stop-color="#FF8904"/>
<stop offset="1" stop-color="#D08700"/>
</linearGradient>
<linearGradient id="paint1_linear_1527_525" x1="279.907" y1="111.04" x2="342.627" y2="173.76" gradientUnits="userSpaceOnUse">
<stop stop-color="white" stop-opacity="0.8"/>
<stop offset="1" stop-color="white" stop-opacity="0"/>
</linearGradient>
<clipPath id="clip0_1527_525">
<path d="M20 32C20 14.3269 34.3269 0 52 0H321.667C339.34 0 353.667 14.3269 353.667 32V128C353.667 145.673 339.34 160 321.667 160H52C34.3269 160 20 145.673 20 128V32Z" fill="white"/>
</clipPath>
<clipPath id="clip1_1527_525">
<rect width="12" height="12" fill="white" transform="translate(52.6665 33.9044)"/>
</clipPath>
</defs>
</svg>
